# xmcd
#
# Track frame offsets: 
#        150
#        26137
#        38100
#        65362
#        77475
#        108750
#        142500
#        154500
#        173625
#        197287
#        210450
#        240487
#        268500
#
# Disc length: 3739 seconds
#
# Revision: 2
# Processed by: cddbd v1.5.2PL0 Copyright (c) Steve Scherf et al.
# Submitted via: ExactAudioCopy v0.99pb5
#
DISCID=920e990d
DTITLE=Varios - Mascara Salsera
DYEAR=2011
DGENRE=Salsa
TTITLE0=Don gonzalo Fernández - Cartagena
TTITLE1=Los Guaracheros de Oriente - Oye mi de Lolas
TTITLE2=Alfredo Valdez - Don Lengua
TTITLE3=Los Pérez - Para la fiesta voy
TTITLE4=La India de Oriente - A bailar el son
TTITLE5=Alfredo de la Fe - Somos los reyes del mundo
TTITLE6=Noro Morales - Vitamina
TTITLE7=Conjunto Renacer - Brujería
TTITLE8=Roberto Torres - Para que aprendas
TTITLE9=Belisario López - En casa de Estanislao
TTITLE10=Alma Latina - Desengaños de la vida
TTITLE11=Charanga Caribe - Separala También
TTITLE12=Belisario López - Que bueno sería
EXTD=
EXTT0=
EXTT1=
EXTT2=
EXTT3=
EXTT4=
EXTT5=
EXTT6=
EXTT7=
EXTT8=
EXTT9=
EXTT10=
EXTT11=
EXTT12=
PLAYORDER=
